HIERARCHY
ROOT root
{
	OFFSET	0	13.1	24.9
	CHANNELS 6  Xposition Yposition Zposition Xrotation Yrotation Zrotation
	JOINT spine_1
	{
		OFFSET	0	9.99999	0
		CHANNELS 3  Xrotation Yrotation Zrotation
		JOINT spine_2
		{
			OFFSET	0	112	-10
			CHANNELS 3  Xrotation Yrotation Zrotation
			JOINT spine_3
			{
				OFFSET	0	206.5	19.3
				CHANNELS 3  Xrotation Yrotation Zrotation
				JOINT spine_4
				{
					OFFSET	0	110.4	14.6
					CHANNELS 3  Xrotation Yrotation Zrotation
					JOINT neck_1
					{
						OFFSET	0	71.8	-50.3
						CHANNELS 3  Xrotation Yrotation Zrotation
						JOINT neck_2
						{
							OFFSET	0	86.2	-25.8
							CHANNELS 3  Xrotation Yrotation Zrotation
							JOINT head_ee
							{
								OFFSET	0	179.8	-8.7
								CHANNELS 3  Xrotation Yrotation Zrotation
								End Site
								{
									OFFSET	1	0	0
								}
							}
						}
					}
					JOINT left_clavicle
					{
						OFFSET	-43.2	22.4	-70.8
						CHANNELS 3  Xrotation Yrotation Zrotation
						JOINT left_shoulder
						{
							OFFSET	-93.9	-5.79999	48.7
							CHANNELS 3  Xrotation Yrotation Zrotation
							JOINT left_elbow
							{
								OFFSET	-291.4	-30.8	15.2
								CHANNELS 3  Xrotation Yrotation Zrotation
								JOINT left_lowarm_twist
								{
									OFFSET	-110.7	-3.89999	13.6
									CHANNELS 3  Xrotation Yrotation Zrotation
									JOINT left_hand
									{
										OFFSET	-110.7	-3.89999	13.6
										CHANNELS 3  Xrotation Yrotation Zrotation
										JOINT left_ee
										{
											OFFSET	-80.8	-5.10001	12.1
											CHANNELS 3  Xrotation Yrotation Zrotation
											End Site
											{
												OFFSET	1	0	0
											}
										}
									}
								}
							}
						}
					}
					JOINT right_clavicle
					{
						OFFSET	43.2	22.4	-70.8
						CHANNELS 3  Xrotation Yrotation Zrotation
						JOINT right_shoulder
						{
							OFFSET	93.9	-5.79999	48.7
							CHANNELS 3  Xrotation Yrotation Zrotation
							JOINT right_elbow
							{
								OFFSET	291.4	-30.8	15.2
								CHANNELS 3  Xrotation Yrotation Zrotation
								JOINT right_lowarm_twist
								{
									OFFSET	110.7	-3.89999	13.6
									CHANNELS 3  Xrotation Yrotation Zrotation
									JOINT right_hand
									{
										OFFSET	110.7	-3.89999	13.6
										CHANNELS 3  Xrotation Yrotation Zrotation
										JOINT right_ee
										{
											OFFSET	80.8	-5.10001	12.1
											CHANNELS 3  Xrotation Yrotation Zrotation
											End Site
											{
												OFFSET	1	0	0
											}
										}
									}
								}
							}
						}
					}
				}
			}
		}
	}
	JOINT left_hip
	{
		OFFSET	-82.8	-127.5	0.300001
		CHANNELS 3  Xrotation Yrotation Zrotation
		JOINT left_knee
		{
			OFFSET	-28.2	-396.7	2.2
			CHANNELS 3  Xrotation Yrotation Zrotation
			JOINT left_ankle
			{
				OFFSET	-11.7	-411.3	35.4
				CHANNELS 3  Xrotation Yrotation Zrotation
				JOINT left_toes
				{
					OFFSET	0	-60	-88.6
					CHANNELS 3  Xrotation Yrotation Zrotation
					JOINT left_foot_ee
					{
						OFFSET	-22.5	-16.5	-42.2
						CHANNELS 3  Xrotation Yrotation Zrotation
						End Site
						{
							OFFSET	1	0	0
						}
					}
				}
			}
		}
	}
	JOINT right_hip
	{
		OFFSET	82.8	-127.5	0.300001
		CHANNELS 3  Xrotation Yrotation Zrotation
		JOINT right_knee
		{
			OFFSET	28.2	-396.7	2.2
			CHANNELS 3  Xrotation Yrotation Zrotation
			JOINT right_ankle
			{
				OFFSET	11.7	-411.3	35.4
				CHANNELS 3  Xrotation Yrotation Zrotation
				JOINT right_toes
				{
					OFFSET	0	-60	-88.6
					CHANNELS 3  Xrotation Yrotation Zrotation
					JOINT right_foot_ee
					{
						OFFSET	22.5	-16.5	-42.2
						CHANNELS 3  Xrotation Yrotation Zrotation
						End Site
						{
							OFFSET	1	0	0
						}
					}
				}
			}
		}
	}
}
MOTION
Frames: 12
Frame Time: 0.02
1001.39 723.919 -1614.36 -103.494 88.5462 112.632 1.16183 -0.967068 -2.2436 1.16426 -0.822381 -2.30055 1.19833 -0.371539 -2.41465 1.19097 -0.748123 -2.32575 -8.33334 -5.57255 6.3754 -8.22768 -14.8824 5.07795 -0.0 0.0 -0.0 11.765 -23.1768 23.1352 5.61781 -36.4363 55.4857 1.30951 -32.9697 0.387534 37.3914 -0.220582 -4.68772 -5.10083 -12.7768 -43.7062 -0.0 0.0 -0.0 0.465858 -26.0021 -3.59068 3.43668 -64.2132 -64.9386 0.63134 17.367 -0.0964236 82.4988 4.12962 8.7443 -1.12878 -25.9833 -3.9364 0.0 0.0 0.0 20.1503 -20.9896 -4.65047 -26.6097 0.158921 4.04388 25.7962 -7.5005 -3.52784 -18.4141 0.0 0.0 -0.0 0.0 -0.0 14.3683 16.7697 -11.5757 -19.5954 -0.300233 -2.97745 26.6796 -26.7324 3.75362 40.2197 -0.0 -0.0 0.0 0.0 0.0 
996.759 724.632 -1616.25 -141.316 86.906 150.511 1.22326 -0.878686 -2.26166 1.2258 -0.733029 -2.31296 1.25634 -0.283816 -2.40963 1.24884 -0.660707 -2.33463 -9.08506 -2.65249 3.42755 -9.05925 -7.33959 2.74732 -0.0 0.0 -0.0 11.5879 -23.8046 22.6715 8.82113 -38.5461 57.6651 1.25114 -31.7885 0.356275 40.0363 -0.351152 -4.9997 -4.53235 -8.87942 -36.7941 -0.0 0.0 -0.0 3.18702 -24.8452 -7.11049 12.5687 -73.4555 -51.2696 0.868174 23.2707 -0.178772 82.5265 4.13288 8.74573 -1.30667 -28.3139 -3.96274 0.0 0.0 0.0 20.1689 -20.9599 -4.36586 -26.3579 0.166247 4.00594 26.2847 -4.31645 -3.54108 -20.807 0.0 0.0 -0.0 0.0 -0.0 14.3359 16.7256 -10.8743 -16.6868 -0.320372 -2.53168 19.5941 -28.0634 2.86844 40.2039 -0.0 -0.0 0.0 0.0 0.0 
985.876 722.971 -1615.57 -140.652 85.4669 150.392 1.29881 -0.807213 -2.52647 1.30213 -0.644866 -2.57268 1.33204 -0.151684 -2.64788 1.32271 -0.567822 -2.59076 -9.89092 -1.4795 2.52819 -9.87747 -4.49718 2.10273 -0.0 0.0 -0.0 11.4358 -23.9369 22.3123 10.54 -40.4767 59.3605 1.2971 -32.7211 0.380803 40.2353 -0.361555 -5.02292 -4.1531 -8.85067 -33.6614 -0.0 0.0 -0.0 4.35059 -13.8035 -8.75526 32.2908 -83.2236 -25.3683 0.827746 22.2955 -0.163116 82.513 4.13128 8.74503 -1.11507 -29.2493 -5.39493 0.0 0.0 0.0 20.0874 -21.2224 -4.60011 -26.418 0.164513 4.015 28.5577 -6.86572 -3.83196 -21.8019 0.0 0.0 -0.0 0.0 -0.0 15.6261 16.5717 -10.0999 -17.1391 -0.318726 -2.60105 19.8817 -27.1277 2.88961 40.2794 -0.0 -0.0 0.0 0.0 0.0 
979.616 722.639 -1618.71 -146.997 85.2062 157.02 1.22653 -0.79351 -2.71142 1.23041 -0.619436 -2.75637 1.26133 -0.088782 -2.82367 1.2506 -0.53344 -2.77428 -9.30881 -0.275794 -0.179209 -9.30876 -0.394499 -0.241189 -0.0 0.0 -0.0 11.0531 -23.1388 21.519 10.7218 -41.0448 59.2651 1.34855 -33.7424 0.408996 41.6122 -0.435767 -5.18265 -3.72277 -7.50525 -29.5989 -0.0 0.0 -0.0 4.37463 -12.5013 -8.78345 38.7406 -84.9074 -17.3263 0.769604 20.8688 -0.141728 84.3986 4.35466 8.83803 -0.706178 -28.8163 -7.42421 0.0 0.0 0.0 19.8442 -21.7214 -4.48107 -27.0696 0.145104 4.11312 30.0062 -5.88043 -3.97533 -20.8444 0.0 0.0 -0.0 0.0 -0.0 16.4253 16.1396 -9.95645 -16.6731 -0.320412 -2.52958 14.8182 -28.8451 2.22004 40.1511 -0.0 -0.0 0.0 0.0 0.0 
977.982 719.606 -1622.51 -154.997 83.684 165.222 1.17296 -0.923065 -2.80531 1.17703 -0.742761 -2.8583 1.21544 -0.188481 -2.94714 1.20391 -0.651367 -2.88048 -8.68406 0.145592 0.0597107 -8.68406 0.230922 0.0920034 -0.0 0.0 -0.0 11.1112 -23.814 21.5873 9.03294 -42.5275 56.9529 1.39765 -34.6951 0.436612 42.4716 -0.484022 -5.28142 -3.32181 -6.70824 -26.1546 -0.0 0.0 -0.0 3.95899 -12.1622 -8.07626 39.0698 -86.3129 -16.6588 0.716079 19.5309 -0.123245 84.8823 4.41243 8.86069 -0.735576 -28.8934 -7.29527 0.0 0.0 0.0 19.8769 -22.0551 -4.62604 -27.7248 0.124464 4.21155 30.2822 -6.70509 -4.01758 -20.4177 0.0 0.0 -0.0 0.0 -0.0 18.1076 15.5837 -9.42279 -16.8438 -0.319863 -2.55577 12.2823 -28.8128 1.85553 40.2692 -0.0 -0.0 0.0 0.0 0.0 
968.492 718.282 -1624.55 -158.274 83.1169 168.28 0.980909 -0.907322 -2.82056 0.985042 -0.72608 -2.87252 1.02306 -0.159446 -2.9585 1.01139 -0.624488 -2.89629 -8.51003 1.16286 -3.36555 -8.47841 4.52929 -3.06099 -0.0 0.0 -0.0 11.2052 -21.3934 22.0142 10.4284 -42.5481 59.1489 1.42362 -35.1902 0.451485 43.5735 -0.548067 -5.40702 -3.33082 -5.63487 -25.7013 -0.0 0.0 -0.0 4.52706 -5.62573 -8.92763 48.7135 -87.5891 -4.60959 0.480002 13.3756 -0.0562838 85.2402 4.4553 8.87714 -0.910915 -28.8374 -6.32414 0.0 0.0 0.0 19.3199 -21.9587 -4.75084 -27.7842 0.122536 4.22046 30.6814 -7.25637 -4.06927 -19.0657 0.0 0.0 -0.0 0.0 -0.0 18.278 16.5652 -9.75063 -18.256 -0.312318 -2.7723 10.7771 -28.7036 1.63476 40.203 -0.0 -0.0 0.0 0.0 0.0 
961.209 714.441 -1625.97 -163.868 81.3141 173.709 0.832883 -0.92386 -2.7673 0.836834 -0.745969 -2.82042 0.875328 -0.181508 -2.91168 0.864067 -0.638888 -2.84657 -7.36974 0.388767 -3.19188 -7.33914 3.01199 -3.10124 -0.0 0.0 -0.0 11.1255 -20.497 21.9029 12.6723 -43.5328 61.7575 1.45546 -35.7892 0.469972 43.7879 -0.560809 -5.43131 -3.56458 -4.88303 -27.0884 -0.0 0.0 -0.0 4.86029 -6.0381 -9.5492 45.7968 -88.5336 -6.53909 0.557815 15.447 -0.075653 85.2062 4.45123 8.8756 -1.02625 -29.0347 -5.78286 0.0 0.0 0.0 19.3025 -22.4045 -4.44633 -27.8383 0.120775 4.22857 30.7435 -5.10184 -4.04299 -19.2302 0.0 0.0 -0.0 0.0 -0.0 17.8043 15.4898 -9.59694 -19.2308 -0.303997 -2.92164 12.2594 -28.87 1.85292 40.1333 -0.0 -0.0 0.0 0.0 0.0 
952.773 715.85 -1632.55 -168.19 80.2762 177.657 0.551222 -0.873062 -2.53227 0.554509 -0.710213 -2.58265 0.588339 -0.179381 -2.67245 0.578873 -0.59905 -2.61066 -7.48761 1.98319 -4.75391 -7.41819 7.09124 -4.32352 -0.0 0.0 -0.0 10.8647 -17.5482 21.5044 12.3347 -43.7907 62.1615 1.59124 -38.2443 0.551737 43.7822 -0.560464 -5.43066 -3.21338 -5.29825 -24.6622 -0.0 0.0 -0.0 4.91194 -4.19781 -9.60804 -39.9005 -89.6505 -92.1823 0.425943 11.9148 -0.0444486 85.0233 4.42931 8.8672 -1.12729 -28.6619 -5.08211 0.0 0.0 0.0 19.1253 -22.5845 -4.72256 -27.897 0.118852 4.23738 30.0147 -9.83943 -4.04491 -19.189 0.0 0.0 -0.0 0.0 -0.0 17.4124 14.8765 -9.547 -21.0303 -0.28197 -3.19685 12.683 -28.9893 1.91583 39.8445 -0.0 -0.0 0.0 0.0 0.0 
948.71 720.535 -1639.67 -167.974 80.3326 177.366 0.164625 -0.862214 -2.38493 0.16751 -0.708754 -2.43493 0.199651 -0.19033 -2.52877 0.191209 -0.587192 -2.46704 -7.07775 2.37001 -3.9844 -7.02572 7.27633 -3.50361 -0.0 0.0 -0.0 11.1517 -15.0321 22.2703 12.0456 -43.5576 62.7194 1.58168 -38.0765 0.545826 43.7249 -0.557055 -5.42418 -3.23605 -4.56282 -24.4706 -0.0 0.0 -0.0 5.49059 -3.41541 -10.6847 -83.7424 -89.6681 -136.21 0.400721 11.2278 -0.0393893 85.2623 4.45795 8.87815 -1.08708 -28.7282 -5.32723 0.0 0.0 0.0 19.2835 -22.664 -4.83964 -27.7753 0.122827 4.21912 30.6322 -9.82103 -4.1114 -19.0983 0.0 0.0 -0.0 0.0 -0.0 17.6437 15.5888 -10.0305 -21.2279 -0.279023 -3.22704 14.2382 -29.3576 2.14496 39.8796 -0.0 -0.0 0.0 0.0 0.0 
944.18 723.011 -1643.45 -168.799 79.8169 177.886 0.01392 -0.828642 -2.25729 0.0164952 -0.683365 -2.30541 0.0459459 -0.185792 -2.39732 0.0383661 -0.561969 -2.33795 -7.21451 2.98589 -4.09921 -7.15955 8.49794 -3.48263 -0.0 0.0 -0.0 11.0915 -12.5362 22.2085 10.6175 -43.2978 62.2766 1.63136 -38.9396 0.576762 43.655 -0.552897 -5.41625 -3.18794 -4.88862 -24.2742 -0.0 0.0 -0.0 5.73019 -0.847654 -11.1048 -2.76837 -88.3075 -55.9603 0.299703 8.44488 -0.0221269 84.9791 4.42402 8.86517 -1.33937 -28.707 -3.95715 0.0 0.0 0.0 19.1051 -22.5411 -4.68854 -27.795 0.122186 4.22208 30.8233 -9.335 -4.1222 -18.8189 0.0 0.0 -0.0 0.0 -0.0 17.4692 14.2498 -9.53123 -20.4723 -0.289725 -3.11159 15.7722 -28.9517 2.3567 39.9762 -0.0 -0.0 0.0 0.0 0.0 
947.473 718.346 -1649.24 -173.906 78.2582 -177.095 -0.114951 -0.892804 -2.41935 -0.111997 -0.737094 -2.47121 -0.0778296 -0.198132 -2.57111 -0.08655 -0.601577 -2.50763 -6.11477 2.60488 -3.73873 -6.06121 7.56531 -3.28103 -0.0 0.0 -0.0 11.2818 -12.0581 22.6446 8.82557 -43.157 60.5842 1.45472 -35.7752 0.469537 43.7466 -0.558343 -5.42663 -3.03482 -3.10963 -22.2796 -0.0 0.0 -0.0 5.50401 1.05785 -10.6175 71.3532 -88.6743 16.3205 0.303508 8.55052 -0.0226892 85.051 4.43263 8.86848 -1.50774 -28.788 -3.08661 0.0 0.0 0.0 18.8941 -22.7615 -5.36218 -27.8292 0.121071 4.22721 30.3775 -9.91115 -4.08575 -19.0436 0.0 0.0 -0.0 0.0 -0.0 17.7819 13.9498 -9.90421 -20.8426 -0.284671 -3.16818 15.1013 -29.0981 2.26412 39.9885 -0.0 -0.0 0.0 0.0 0.0 
943.884 720.132 -1659.33 -172.363 78.1454 -179.274 -0.198221 -0.729835 -2.12656 -0.1959 -0.59307 -2.16867 -0.171597 -0.117512 -2.24519 -0.178323 -0.470537 -2.1985 -6.14823 3.8313 -3.29786 -6.09942 9.50745 -2.60113 -0.0 0.0 -0.0 11.1692 -8.64245 22.4112 7.81122 -42.7397 61.1244 1.4201 -35.1234 0.449457 43.7189 -0.556694 -5.42349 -3.35663 -3.16562 -24.669 -0.0 0.0 -0.0 6.14247 0.276216 -11.8941 93.5956 -88.9338 38.541 0.302848 8.5322 -0.0225911 85.3784 4.47188 8.88343 -1.48025 -28.597 -3.14935 0.0 0.0 0.0 19.2305 -22.8016 -5.202 -27.6433 0.127092 4.19932 28.6472 -9.77637 -3.89278 -19.4657 0.0 0.0 -0.0 0.0 -0.0 17.8336 13.029 -10.0933 -21.7523 -0.270703 -3.30707 16.0528 -29.2047 2.4004 40.1545 -0.0 -0.0 0.0 0.0 0.0 
